MoBL_ARMS_module2_4_allmuscles elbow_states	
version=1	
nRows=251	
nColumns=2	
inDegrees=yes	
	
# SIMM Motion File Header:	
name MoBL_ARMS_module2_4_allmuscles elbow_states	
datacolumns 2	
datarows 251	
otherdata 1	
range 4.896763766 5.42992674	
endheader	
time	elbow_flexion
4.896763766	27.84536306
4.898648603	27.74090822
4.901029109	27.60850807
4.903409614	27.47560759
4.90529445	27.37004731
4.907179286	27.26421203
4.909559732	27.13018155
4.911940178	26.99577383
4.913825118	26.88909809
4.915710058	26.78222231
4.918090432	26.64699396
4.920470805	26.51150327
4.922355651	26.40405356
4.924240497	26.29647713
4.926621011	26.16045811
4.929001525	26.02430509
4.930886342	25.91643418
4.932771159	25.80852215
4.935151682	25.67219706
4.937532205	25.53586568
4.939417049	25.42793724
4.941301893	25.32003989
4.943682384	25.18384087
4.946062876	25.04775665
4.947947714	24.94011432
4.949832553	24.83258741
4.952213061	24.69697457
4.954593568	24.56160258
4.956478358	24.45460884
4.958363148	24.34779508
4.960743766	24.21315993
4.963124383	24.07886404
4.965009155	23.9728033
4.966893928	23.86699415
4.969274099	23.73375855
4.971654271	23.60097841
4.973539815	23.49612978
4.975425359	23.39159111
4.977804977	23.26011853
4.980184594	23.12917834
4.982069542	23.02585154
4.98395449	22.92288669
4.986334925	22.79339224
4.988715359	22.66451655
4.990600141	22.56292707
4.992484922	22.46174642
4.994865496	22.33454708
4.997246071	22.20802866
4.999130903	22.10834999
5.001015735	22.00911493
5.003396238	21.88442835
5.00577674	21.7604752
5.007661585	21.66286067
5.00954643	21.56572192
5.011926923	21.44373029
5.014307415	21.32252413
5.016192252	21.22712275
5.01807709	21.13223267
5.020457597	21.01313301
5.022838103	20.8948789
5.024722938	20.80185747
5.026607773	20.70938441
5.028988147	20.59339956
5.031368522	20.47833222
5.033253589	20.38787931
5.035138657	20.29803674
5.037518871	20.18548801
5.039899085	20.07395618
5.041783944	19.9863707
5.043668803	19.89944602
5.046049322	19.79062422
5.048429841	19.68289825
5.050314637	19.59839783
5.052199434	19.51460615
5.054579985	19.40979334
5.056960537	19.30611682
5.058845374	19.22483098
5.060730211	19.14424961
5.063110708	19.04348223
5.065491206	18.94383707
5.067375753	18.86574851
5.069260299	18.78836304
5.071641563	18.69157739
5.074022826	18.59588249
5.075907184	18.52091038
5.077791543	18.44658919
5.080171866	18.35361989
5.082552188	18.26166013
5.084438298	18.18950918
5.086324407	18.11799048
5.088703263	18.02868381
5.09108212	17.94036313
5.092967228	17.87105891
5.094852336	17.80234598
5.097232625	17.71641329
5.099612914	17.63139804
5.10149766	17.56473217
5.103382405	17.49864318
5.105763045	17.41599407
5.108143686	17.33427419
5.110028484	17.27023657
5.111913283	17.20678489
5.114293053	17.12750711
5.116672823	17.04916436
5.118559019	16.98773598
5.120445215	16.92689808
5.122824025	16.85101627
5.125202836	16.7760812
5.127087878	16.71737531
5.128972921	16.65926793
5.131353299	16.58674866
5.133733676	16.51518784
5.135618406	16.45920881
5.137503136	16.40383339
5.139883715	16.33475474
5.142264294	16.2666451
5.144149227	16.21340556
5.146034161	16.1607768
5.148414531	16.09518962
5.150794902	16.03058051
5.152679769	15.98011565
5.154564636	15.930266
5.15694511	15.86818927
5.159325584	15.80709699
5.161210419	15.75942441
5.163095253	15.71237125
5.165475761	15.65383069
5.167856268	15.59628099
5.169741106	15.55141768
5.171625943	15.50717626
5.174006444	15.45218948
5.176386945	15.39819533
5.178271786	15.35614806
5.180156627	15.31472353
5.182537124	15.26329566
5.184917621	15.21286121
5.186802462	15.17363247
5.188687303	15.13502597
5.1910678	15.08715562
5.193448298	15.04027614
5.195333138	15.00385999
5.197217979	14.9680641
5.199598476	14.92374085
5.201978972	14.88040567
5.203863815	14.84679375
5.205748657	14.81380003
5.208129153	14.77301223
5.210509648	14.73320754
5.212394489	14.70238696
5.214279329	14.67218067
5.216659828	14.63490742
5.219040326	14.59861056
5.220925166	14.57056245
5.222810006	14.54312392
5.225190504	14.50933894
5.227571003	14.47652147
5.229455843	14.45122149
5.231340684	14.42652467
5.233721181	14.39619265
5.236101679	14.36681652
5.23798652	14.34423261
5.239871361	14.3222438
5.242251858	14.29532009
5.244632355	14.26933866
5.246517196	14.24943265
5.248402036	14.23011264
5.250782534	14.20654594
5.253163032	14.18390567
5.255047872	14.16663342
5.256932713	14.14993645
5.259313211	14.12966687
5.261693708	14.11030587
5.263578549	14.09561729
5.26546339	14.08149265
5.267843887	14.06445565
5.270224385	14.04830919
5.272109225	14.03615302
5.273994066	14.02454942
5.276374564	14.0106801
5.278755062	13.99768305
5.280639902	13.98800767
5.282524743	13.97887361
5.28490524	13.9681074
5.287285737	13.95819572
5.289170579	13.95095039
5.291055421	13.94423456
5.293435917	13.93650474
5.295816412	13.92960872
5.297701253	13.92473596
5.299586094	13.92037898
5.301966592	13.91560814
5.304347089	13.91164754
5.30623193	13.90908126
5.30811677	13.9070141
5.310497268	13.90511024
5.312877767	13.90398777
5.314762607	13.90364785
5.316647447	13.90378844
5.319027945	13.90464585
5.321408442	13.90625366
5.323293284	13.90805284
5.325178126	13.91031197
5.327558622	13.91381546
5.329939118	13.91803661
5.331823959	13.92188229
5.3337088	13.92616836
5.336089298	13.93220433
5.338469795	13.93892749
5.340354636	13.94473254
5.342239477	13.95095881
5.344619974	13.95941807
5.347000472	13.96853488
5.348885313	13.97621485
5.350770154	13.98429855
5.353150651	13.9950791
5.355531148	14.00648989
5.357415989	14.01596666
5.35930083	14.02582965
5.361681327	14.03883195
5.364061825	14.05243566
5.365946665	14.063628
5.367831506	14.07518808
5.370212004	14.09030726
5.372592501	14.10599827
5.374477342	14.11882239
5.376362183	14.13199583
5.378742681	14.14912643
5.381123178	14.16679967
5.383008019	14.18117263
5.38489286	14.19587664
5.387273357	14.21491437
5.389653855	14.23446623
5.391538695	14.25030697
5.393423536	14.26646201
5.395804034	14.2873093
5.398184532	14.30864587
5.400069372	14.32588247
5.401954213	14.3434183
5.404334711	14.365988
5.406715208	14.38902321
5.408600049	14.40758815
5.41048489	14.42643789
5.412865387	14.4506469
5.415245885	14.47529946
5.417130726	14.49512968
5.419015566	14.51523126
5.421396064	14.54100205
5.423776562	14.56719464
5.425661402	14.58822851
5.427546243	14.60951956
5.42992674	14.63677184
